<?xml version="1.0" standalone="no"?>
<!DOCTYPE svg PUBLIC "-//W3C//DTD SVG 20010904//EN"
 "http://www.w3.org/TR/2001/REC-SVG-20010904/DTD/svg10.dtd">
<svg version="1.0" xmlns="http://www.w3.org/2000/svg"
 width="702.000000pt" height="465.000000pt" viewBox="0 0 702.000000 465.000000"
 preserveAspectRatio="xMidYMid meet">

<g transform="translate(0.000000,465.000000) scale(0.100000,-0.100000)"
fill="#000000" stroke="none">
<path d="M2983 4100 c-50 -10 -64 -17 -148 -76 -78 -55 -110 -101 -102 -150 7
-40 49 -114 55 -96 3 9 68 12 241 12 l238 0 11 -39 c12 -37 21 -44 84 -64 12
-4 18 -23 23 -72 7 -58 11 -68 38 -87 l30 -21 -7 34 c-7 41 9 95 30 103 45 17
102 -70 113 -173 l7 -66 13 44 c34 117 34 238 0 364 -19 74 -80 177 -118 202
-51 34 -166 63 -311 80 -137 16 -137 16 -197 5z"/>
<path d="M3195 3489 c-16 -10 -30 -24 -30 -31 0 -13 82 -41 96 -32 17 10 9 24
-16 30 -26 6 -26 7 -5 21 47 33 6 45 -45 12z"/>
<path d="M2804 3449 c-7 -12 13 -29 36 -29 10 0 7 -5 -8 -16 -25 -17 -29 -34
-8 -34 20 0 86 40 86 51 0 19 -96 44 -106 28z"/>
<path d="M3523 2971 c-23 -4 -50 -14 -60 -23 -28 -24 -116 -66 -167 -79 -53
-13 -96 -1 -96 26 0 12 -7 14 -27 9 -59 -14 -160 -56 -221 -92 -60 -35 -76
-54 -322 -382 -142 -190 -263 -358 -269 -373 -32 -85 -1 -203 69 -258 41 -32
663 -284 683 -276 7 3 22 27 32 54 23 61 32 73 60 73 33 0 29 42 -5 50 -19 4
-26 13 -28 38 -2 23 -8 32 -21 32 -14 0 -17 -6 -13 -27 4 -20 1 -25 -9 -21
-385 153 -579 234 -583 244 -3 7 87 135 199 285 114 152 206 266 209 258 2 -8
10 -50 16 -94 17 -114 64 -290 103 -388 19 -46 40 -107 46 -135 10 -42 16 -49
32 -45 10 3 19 13 19 23 0 38 23 43 132 31 57 -7 118 -14 136 -18 42 -7 42 7
-5 74 -29 43 -35 58 -27 71 21 33 51 26 84 -20 55 -77 124 -158 135 -158 6 0
25 -33 41 -74 l31 -74 -39 -35 c-46 -42 -118 -62 -188 -54 -32 4 -54 1 -66 -8
-20 -14 -13 -20 146 -113 75 -44 90 -63 72 -92 -10 -17 -10 -23 3 -36 19 -20
19 -29 -1 -49 -11 -11 -25 -14 -45 -10 -22 5 -31 2 -35 -10 -6 -14 -15 -16
-44 -11 -28 4 -39 2 -44 -9 -12 -31 -62 -9 -219 96 -87 58 -89 59 -83 32 2
-16 8 -54 11 -87 5 -46 11 -59 26 -63 10 -3 19 -11 19 -18 0 -6 -140 -142
-310 -300 -182 -170 -307 -292 -301 -298 10 -10 266 -87 291 -87 9 0 120 96
245 212 157 147 235 213 249 212 12 -1 50 -7 86 -14 36 -6 78 -9 94 -6 25 5
28 4 23 -17 -2 -12 -47 -124 -100 -249 l-94 -227 41 -5 c22 -3 90 -7 151 -8
l109 -3 34 80 c18 44 90 217 160 385 124 302 126 306 126 385 1 66 4 81 19 87
9 4 17 14 17 22 0 8 -18 86 -41 173 -23 87 -43 170 -46 184 -5 25 1 28 202
109 222 89 261 114 291 186 22 52 22 132 1 180 -10 21 -131 190 -270 374 -243
322 -254 335 -297 348 -51 16 -302 25 -367 13z m577 -579 c159 -211 181 -245
169 -258 -15 -15 -354 -154 -376 -154 -15 0 -29 50 -44 155 -10 74 -9 90 20
231 17 83 31 181 31 219 0 39 4 65 8 60 5 -6 91 -119 192 -253z"/>
<path d="M2766 1568 c-3 -17 -4 -33 -2 -35 2 -2 31 -12 63 -22 53 -16 61 -17
69 -3 9 13 16 13 44 4 51 -18 45 -9 -18 27 -34 20 -58 28 -60 21 -3 -7 -20 -1
-47 14 l-43 25 -6 -31z"/>
<path d="M2980 1414 c-8 -1 -40 -6 -71 -9 -50 -5 -56 -9 -52 -26 5 -16 0 -19
-33 -19 -22 0 -56 -3 -76 -6 l-37 -6 21 -42 c11 -22 22 -43 24 -45 1 -1 46 11
99 29 94 31 96 33 90 59 -5 26 -2 28 57 48 56 19 59 21 28 21 -19 0 -42 -2
-50 -4z"/>
<path d="M3046 1251 c-26 -27 -43 -50 -37 -52 7 -3 -1 -19 -18 -39 -17 -19
-30 -38 -31 -42 0 -3 13 -11 28 -16 28 -10 30 -8 60 45 35 61 38 69 20 75 -8
3 -6 15 10 41 12 20 20 37 19 37 -2 0 -24 -22 -51 -49z"/>
</g>
</svg>
